<?xml version="1.0" encoding="UTF-8"?>
<svg version="1.1" xmlns="http://www.w3.org/2000/svg" width="1024" height="1024">
<path d="M0 0 C337.92 0 675.84 0 1024 0 C1024 337.92 1024 675.84 1024 1024 C686.08 1024 348.16 1024 0 1024 C0 686.08 0 348.16 0 0 Z " fill="#FEFEFD" transform="translate(0,0)"/>
<path d="M0 0 C21.44162029 18.3534015 36.9492147 44.89372636 40.40771484 73.15673828 C40.80425347 79.56355839 40.75515379 85.9608477 40.60693359 92.37548828 C41.51185547 92.62685547 42.41677734 92.87822266 43.34912109 93.13720703 C49.38170855 95.43016893 53.19922998 100.28004202 55.84277344 106.09301758 C58.70251999 114.83765569 59.22711706 122.91606037 59.12841797 132.02294922 C59.10695374 134.37328191 59.12833704 136.72055965 59.15380859 139.07080078 C59.17514842 150.59074921 58.11166439 162.41015955 50.45849609 171.65283203 C46.93117791 174.93457743 41.61195263 179.37548828 36.60693359 179.37548828 C39.99297644 200.35799039 44.86490571 220.24711704 51.6706543 240.37817383 C56.04971932 254.39689126 54.89783403 270.25681662 48.13427734 283.19189453 C39.67468754 297.57119729 26.81672654 307.6832442 10.85302734 312.48095703 C6.00410805 313.69869041 1.2019432 313.55656827 -3.76806641 313.56298828 C-10.40389866 313.5830571 -10.40389866 313.5830571 -16.27978516 316.33251953 C-18.49639023 318.84869229 -18.49639023 318.84869229 -20.41650391 321.61767578 C-26.95451152 330.73987612 -37.6458553 336.26016988 -47.39306641 341.37548828 C-48.27349609 341.84857422 -49.15392578 342.32166016 -50.06103516 342.80908203 C-73.53060574 354.48928693 -101.71751398 355.40707717 -126.48730469 347.72607422 C-140.30383892 343.0259212 -153.46718265 336.06310521 -164.39306641 326.37548828 C-165.26962891 325.60720703 -166.14619141 324.83892578 -167.04931641 324.04736328 C-173.96656414 317.9032197 -173.96656414 317.9032197 -176.63134766 314.60595703 C-180.55604432 311.43622323 -183.41408918 312.0099838 -188.26806641 312.37548828 C-204.61391586 312.96711513 -217.32586977 306.5650191 -229.64306641 296.06298828 C-238.37772697 287.89677388 -245.67616048 277.19343114 -246.66650391 265.01220703 C-246.71677734 263.05734375 -246.71677734 263.05734375 -246.76806641 261.06298828 C-246.81705078 259.78810547 -246.86603516 258.51322266 -246.91650391 257.19970703 C-246.26274404 245.49404614 -240.08316071 234.11687519 -235.00323486 223.76403809 C-228.13167208 209.71950205 -222.12817311 195.6120164 -218.39306641 180.37548828 C-219.52744141 180.33423828 -220.66181641 180.29298828 -221.83056641 180.25048828 C-228.35282788 179.38623102 -233.0290116 175.94988452 -237.41259766 171.17626953 C-245.84433961 160.15287636 -245.88190526 147.61899011 -245.78417969 134.30200195 C-245.76803007 131.6820929 -245.78413707 129.0637114 -245.80322266 126.44384766 C-245.80124103 124.75048494 -245.79739901 123.05712315 -245.79150391 121.36376953 C-245.7975766 120.59478836 -245.80364929 119.82580719 -245.80990601 119.03352356 C-245.69899223 110.3377774 -243.2682975 103.45097295 -237.30322266 97.10595703 C-234.26382655 94.35247549 -230.65246403 91.37548828 -226.39306641 91.37548828 C-226.44527344 90.37195313 -226.44527344 90.37195313 -226.49853516 89.34814453 C-227.37380645 58.29685351 -213.28342231 29.53083113 -192.39306641 7.37548828 C-191.73048828 6.63685547 -191.06791016 5.89822266 -190.38525391 5.13720703 C-142.87601221 -45.7139395 -51.24032983 -42.51791579 0 0 Z " fill="#0E2A48" transform="translate(364.39306640625,338.62451171875)"/>
<path d="M0 0 C2.712237 2.712237 3.74850926 5.94931611 5.1875 9.4375 C9.53517695 19.62612205 14.82062669 28.1685134 22.49609375 36.22265625 C24 38 24 38 24 40 C24.56976563 40.24492187 25.13953125 40.48984375 25.7265625 40.7421875 C28.38956838 42.2155344 30.20122677 43.9957409 32.375 46.125 C39.81580364 52.9586164 48.37197232 57.90479606 58 61 C58.04672497 68.58120618 58.08207025 76.16239708 58.10362434 83.74371529 C58.11397895 87.26555663 58.12798205 90.78729813 58.15087891 94.30908203 C58.17714452 98.37533422 58.1865414 102.44148463 58.1953125 106.5078125 C58.20563507 107.74798126 58.21595764 108.98815002 58.22659302 110.26589966 C58.22803436 121.71733646 56.94495389 132.96583728 53.8125 144 C53.59891846 144.75418213 53.38533691 145.50836426 53.1652832 146.28540039 C49.06149005 160.06314763 41.85760101 174.40323927 30 183 C29.51273438 182.67644531 29.02546875 182.35289062 28.5234375 182.01953125 C24.93116772 180.56816528 21.43878626 180.67111776 17.625 180.6875 C16.51125 180.66333008 16.51125 180.66333008 15.375 180.63867188 C9.68495923 180.63364534 5.53951197 181.79908962 1.125 185.625 C-1.04196632 190.19970667 -0.4767601 195.13268963 0.75 199.9375 C2.20835341 202.34378312 3.38874578 203.04254012 6 204 C6 204.99 6 205.98 6 207 C-7.0111139 218.93146828 -23.54639204 220.90336717 -40.38037109 220.18652344 C-61.44239387 218.68686031 -80.05553064 206.62546482 -94.3125 191.6875 C-113.59888895 169.42911013 -122.4150723 143.2414521 -122.1953125 114.07421875 C-122.19157093 112.59064426 -122.18872939 111.10706725 -122.18673706 109.62348938 C-122.17919044 105.76515583 -122.15962197 101.9069788 -122.1373291 98.04870605 C-122.11667448 94.0930391 -122.1076939 90.13734625 -122.09765625 86.18164062 C-122.0763652 78.45435661 -122.04234135 70.72720044 -122 63 C-120.94827606 62.8955658 -119.89655212 62.79113159 -118.81295776 62.68353271 C-100.44127928 60.85156724 -82.56364533 59.06514371 -65 53 C-64.30084473 52.76023437 -63.60168945 52.52046875 -62.88134766 52.2734375 C-35.98222361 42.79723992 -12.63728278 26.02529522 0 0 Z " fill="#94CAE4" transform="translate(305,386)"/>
<path d="M0 0 C6.30997625 3.56650831 6.30997625 3.56650831 9.26953125 5.42578125 C25.74654683 15.72724333 43.00209676 19.89856461 62.20947266 15.97094727 C73.17338933 13.36055535 82.43201263 7.78403756 92 2 C92.08636719 3.00417969 92.17273438 4.00835938 92.26171875 5.04296875 C93.87605927 21.58080976 99.03266711 33.24589353 111 45 C95.71864063 63.48427055 76.56086143 73.14001104 53 76 C28.36343855 77.45119472 7.59673921 68.46465681 -11 53 C-17.64556962 47.06329114 -17.64556962 47.06329114 -19 43 C-18.12988281 42.21689453 -18.12988281 42.21689453 -17.2421875 41.41796875 C-4.71434023 29.61367702 -1.69838242 16.64414769 0 0 Z " fill="#94CAE3" transform="translate(223,600)"/>
<path d="M0 0 C44.75 0 44.75 0 54.203125 8.98046875 C60.70364001 16.28648236 61.82113589 23.77869452 61.35546875 33.28125 C60.64972836 40.66438023 58.33245741 45.66754259 53 51 C47.2484472 55 47.2484472 55 44 55 C46.36579571 59.03868853 48.73193602 63.07717489 51.09838867 67.11547852 C51.90251873 68.48781951 52.70655642 69.86021463 53.51049805 71.23266602 C54.66951304 73.21124456 55.8288657 75.18962491 56.98828125 77.16796875 C57.34465164 77.77650192 57.70102203 78.3850351 58.06819153 79.01200867 C60.02659941 82.35287328 62.00115205 85.68317023 64 89 C57.3175649 90.45211869 50.48392724 91.76636253 44 89 C38.13785027 83.13281297 34.69385891 75.2459319 31.30834961 67.77075195 C30.03792896 64.95365058 30.03792896 64.95365058 28.33422852 62.26635742 C27 60 27 60 27 58 C23.7 58 20.4 58 17 58 C17 68.23 17 78.46 17 89 C11.39 89 5.78 89 0 89 C0 59.63 0 30.26 0 0 Z " fill="#0E2845" transform="translate(589,416)"/>
<path d="M0 0 C20.28958165 16.62869144 35.85281536 40.50509674 39 67 C39.46585922 72.659524 39.74993343 78.32743734 40 84 C33.25 84.125 33.25 84.125 31 83 C30.33436725 79.99860142 29.77008548 77.02703617 29.25 74 C24.22292069 47.12880658 11.44512874 22.12999227 -11.35668945 6.03051758 C-38.3790863 -12.24575212 -71.82584091 -19.30471689 -104.05078125 -13.91943359 C-132.27227479 -8.36628086 -157.9196395 5.74215982 -174.39868164 29.80371094 C-184.52662817 45.10929659 -190.10701882 62.12222592 -193.38671875 80.078125 C-194 83 -194 83 -195 84 C-197.33297433 84.04092937 -199.66705225 84.04241723 -202 84 C-203.21533308 69.28096606 -199.186639 53.26653603 -193 40 C-192.72704102 39.41444336 -192.45408203 38.82888672 -192.17285156 38.22558594 C-187.36234667 28.11023698 -181.26397136 19.49851581 -174 11 C-173.42894531 10.32582031 -172.85789063 9.65164063 -172.26953125 8.95703125 C-130.04562449 -36.74030743 -47.22384091 -37.4448542 0 0 Z " fill="#F9FAFB" transform="translate(353,346)"/>
<path d="M0 0 C6.27 0 12.54 0 19 0 C24.64666532 17.22703632 30.28542711 34.45663874 35.91723633 51.6885376 C36.88851811 54.65905017 37.8609295 57.62918897 38.83398438 60.59912109 C40.05849915 64.33714355 41.27914958 68.07639591 42.49542236 71.81710815 C43.11298091 73.71309969 43.73491442 75.60766444 44.35693359 77.50219727 C44.89568115 79.16400024 44.89568115 79.16400024 45.4453125 80.859375 C45.74969238 81.79233398 46.05407227 82.72529297 46.36767578 83.68652344 C47 86 47 86 47 89 C41.39 89 35.78 89 30 89 C27.03 80.09 27.03 80.09 24 71 C9.15 70.505 9.15 70.505 -6 70 C-6.99 73.96 -7.98 77.92 -9 82 C-9.99 84.31 -10.98 86.62 -12 89 C-17.61 89 -23.22 89 -29 89 C-27.77074174 83.14360717 -26.31584965 77.51585628 -24.40209961 71.84985352 C-24.14982101 71.09097336 -23.89754242 70.3320932 -23.63761902 69.55021667 C-22.81353075 67.07497535 -21.98306686 64.6019279 -21.15234375 62.12890625 C-20.57432059 60.39789849 -19.99665398 58.66677162 -19.41932678 56.93553162 C-18.21417815 53.32466825 -17.00610484 49.71480232 -15.7956543 46.10571289 C-14.24242525 41.47444657 -12.6944856 36.84143472 -11.14844418 32.20776463 C-9.95821594 28.64122861 -8.7662902 25.07526199 -7.57373238 21.50950432 C-7.00210219 19.80031605 -6.43075494 18.09103313 -5.85969353 16.38165474 C-5.06420307 14.00203452 -4.2666851 11.62310424 -3.46850586 9.24438477 C-3.23212402 8.53635712 -2.99574219 7.82832947 -2.75219727 7.09884644 C-1.11470643 2.22941286 -1.11470643 2.22941286 0 0 Z " fill="#3875AA" transform="translate(888,416)"/>
<path d="M0 0 C5.61 0 11.22 0 17 0 C17 11.88 17 23.76 17 36 C27.56 36 38.12 36 49 36 C49 24.12 49 12.24 49 0 C54.61 0 60.22 0 66 0 C66 29.37 66 58.74 66 89 C60.39 89 54.78 89 49 89 C49 76.79 49 64.58 49 52 C38.44 52 27.88 52 17 52 C17 64.21 17 76.42 17 89 C11.39 89 5.78 89 0 89 C0 59.63 0 30.26 0 0 Z " fill="#0C2744" transform="translate(469,416)"/>
<path d="M0 0 C5.94 0 11.88 0 18 0 C18.66902344 2.00707031 19.33804688 4.01414062 20.02734375 6.08203125 C20.38369904 7.15096115 20.38369904 7.15096115 20.74725342 8.2414856 C22.00299005 12.00828783 23.25820471 15.77526307 24.51269531 19.54248047 C27.4684308 28.41654933 30.4302591 37.28852726 33.40284729 46.15696716 C34.96648883 50.82304477 36.52780122 55.48990022 38.08889771 60.15682983 C38.86409391 62.4723126 39.64036264 64.78743656 40.41769409 67.10220337 C41.51556124 70.37191842 42.60973335 73.64284861 43.703125 76.9140625 C44.0369368 77.90517532 44.3707486 78.89628815 44.7146759 79.91743469 C45.01669418 80.82333847 45.31871246 81.72924225 45.62988281 82.66259766 C45.89569153 83.45558258 46.16150024 84.2485675 46.43536377 85.06558228 C47 87 47 87 47 89 C41.06 89 35.12 89 29 89 C28.175 86.421875 27.35 83.84375 26.5 81.1875 C26.23896484 80.37949951 25.97792969 79.57149902 25.70898438 78.73901367 C24.75555883 75.72323788 24 73.18094183 24 70 C14.1 70 4.2 70 -6 70 C-6.99 73.96 -7.98 77.92 -9 82 C-9.99 84.31 -10.98 86.62 -12 89 C-17.61 89 -23.22 89 -29 89 C-27.04250102 81.64093647 -24.90416222 74.38837964 -22.5234375 67.15625 C-22.19647385 66.15590225 -21.86951019 65.1555545 -21.53263855 64.12489319 C-20.48284272 60.91568704 -19.42909284 57.70779705 -18.375 54.5 C-17.65212408 52.29423477 -16.92938695 50.08842405 -16.20678711 47.88256836 C-12.34519556 36.10269618 -8.47220269 24.32650129 -4.5625 12.5625 C-4.20397949 11.48226563 -3.84545898 10.40203125 -3.47607422 9.2890625 C-3.15525879 8.32871094 -2.83444336 7.36835938 -2.50390625 6.37890625 C-2.23392822 5.5701001 -1.9639502 4.76129395 -1.68579102 3.92797852 C-1 2 -1 2 0 0 Z " fill="#3774AA" transform="translate(753,416)"/>
<path d="M0 0 C17.49 0 34.98 0 53 0 C53 5.28 53 10.56 53 16 C41.12 16 29.24 16 17 16 C17 22.6 17 29.2 17 36 C27.23 36 37.46 36 48 36 C48 40.95 48 45.9 48 51 C38.1 51 28.2 51 18 51 C18 58.26 18 65.52 18 73 C29.55 73 41.1 73 53 73 C53 78.28 53 83.56 53 89 C35.51 89 18.02 89 0 89 C0 59.63 0 30.26 0 0 Z " fill="#0E2845" transform="translate(664,416)"/>
<path d="M0 0 C5.94 0 11.88 0 18 0 C21.47710964 10.74742979 24.86983425 21.50877439 28.1015625 32.33203125 C28.37049316 33.23239105 28.63942383 34.13275085 28.91650391 35.06039429 C30.28266559 39.63896054 31.64346538 44.21906494 32.99902344 48.80078125 C33.50710646 50.50913094 34.01524215 52.21746497 34.5234375 53.92578125 C34.75858063 54.72587112 34.99372375 55.525961 35.23599243 56.35029602 C36.07783455 59.96299455 36.07783455 59.96299455 38 63 C44.27 42.21 50.54 21.42 57 0 C62.94 0 68.88 0 75 0 C69.73158403 17.87305624 64.06696736 35.61287855 58.38964844 53.35906982 C57.10092169 57.38870687 55.81422942 61.41899345 54.52734375 65.44921875 C52.02017122 73.30010092 49.51062919 81.15022255 47 89 C40.73 89 34.46 89 28 89 C22.17540447 70.93470728 16.39976325 52.8549593 10.68554688 34.75439453 C9.67695829 31.56039221 8.66707108 28.3668064 7.65654755 25.17341614 C6.67619578 22.07428708 5.69756972 18.97461322 4.71875 15.875 C4.17825012 14.16751587 4.17825012 14.16751587 3.62683105 12.42553711 C3.12995789 10.84977905 3.12995789 10.84977905 2.62304688 9.2421875 C2.18744446 7.86329346 2.18744446 7.86329346 1.74304199 6.45654297 C1.09763519 4.32278799 0.54066736 2.16266943 0 0 Z " fill="#3673A9" transform="translate(791,416)"/>
<path d="M0 0 C5.94 0 11.88 0 18 0 C18 29.7 18 59.4 18 90 C12.06 90 6.12 90 0 90 C0 60.3 0 30.6 0 0 Z " fill="#102E4C" transform="translate(553,415)"/>
<path d="M0 0 C10.57894737 0 10.57894737 0 15 4 C17.75083282 8.5531026 19.10017278 12.71081832 19.17700195 17.99902344 C19.18983719 18.77372986 19.20267242 19.54843628 19.21589661 20.34661865 C19.22328354 21.17582825 19.23067047 22.00503784 19.23828125 22.859375 C19.246353 23.72258362 19.25442474 24.58579224 19.26274109 25.47515869 C19.27655361 27.30080168 19.2872884 29.12647019 19.29516602 30.95214844 C19.30667812 32.81029886 19.32711778 34.66841642 19.35668945 36.52636719 C19.39955532 39.22093014 19.41556134 41.91451256 19.42578125 44.609375 C19.44328934 45.43048767 19.46079742 46.25160034 19.47883606 47.09759521 C19.45522084 53.45281278 17.98853902 58.86440545 13.50874329 63.56463623 C8.54085217 67.58542604 5.91166955 67.23203672 -1 68 C-0.67 45.56 -0.34 23.12 0 0 Z " fill="#3E7CAF" transform="translate(393,440)"/>
<path d="M0 0 C0 22.44 0 44.88 0 68 C-6.83383854 66.86102691 -8.48302017 65.50959159 -12.38671875 60.06640625 C-16.50947392 53.81730171 -17.15859497 48.62738332 -17.203125 41.171875 C-17.20882507 40.42343323 -17.21452515 39.67499146 -17.22039795 38.90386963 C-17.22981472 37.32378538 -17.23636867 35.74368179 -17.24023438 34.16357422 C-17.2499132 31.77145251 -17.28095604 29.38020074 -17.3125 26.98828125 C-17.43514943 9.52676809 -17.43514943 9.52676809 -12.76000977 3.3659668 C-8.46509202 -0.87244841 -6.55495299 0 0 0 Z " fill="#3E7DB0" transform="translate(146,440)"/>
<path d="M0 0 C4.5478125 -0.12375 4.5478125 -0.12375 9.1875 -0.25 C10.60712036 -0.30462402 10.60712036 -0.30462402 12.05541992 -0.36035156 C16.11219345 -0.41374716 18.42776555 -0.33810454 21.98828125 1.765625 C26.03419591 6.25933993 26.38917317 9.67889049 26.25 15.59375 C25.91802177 18.78904044 25.12105635 20.58638416 23 23 C18.41915451 26.64705776 14.25939994 26.35768417 8.6875 26.1875 C5.820625 26.125625 2.95375 26.06375 0 26 C0 17.42 0 8.84 0 0 Z " fill="#FCFDFD" transform="translate(606,432)"/>
<path d="M0 0 C2.31 0 4.62 0 7 0 C6.27032652 18.86205938 -3.18434542 34.98584497 -16.78515625 47.6640625 C-25.36129492 54.71346 -38.81345671 62 -50 62 C-50 59.69 -50 57.38 -50 55 C-49.05640625 54.64808594 -48.1128125 54.29617188 -47.140625 53.93359375 C-29.20530583 47.09606139 -15.37450245 38.42124924 -6.41796875 20.90625 C-3.46976019 14.13694938 -1.57093358 7.2033052 0 0 Z " fill="#4281B4" transform="translate(390,519)"/>
<path d="M0 0 C3.30653731 0.39735212 5.970053 1.94345519 8.875 3.5 C18.93496574 8.573849 30.00068236 8.07082599 40.65625 4.87109375 C43.31866163 3.88156409 45.57769968 2.4680608 48 1 C50.3125 1.3125 50.3125 1.3125 52 2 C52.8125 3.6875 52.8125 3.6875 53 6 C46.31573484 14.10213959 37.99214408 17.2097331 27.8203125 18.359375 C18.80929428 18.74833982 10.95776726 16.82285668 3.73046875 11.25 C0.75798234 8.44097007 -1.55987489 6.22002307 -2 2 C-1.34 1.34 -0.68 0.68 0 0 Z " fill="#0E2743" transform="translate(246,550)"/>
<path d="M0 0 C3.66248936 1.92545662 6.15004185 4.3000837 8 8 C8.16796875 9.875 8.16796875 9.875 8.1875 12 C8.20167969 12.70125 8.21585937 13.4025 8.23046875 14.125 C8 16 8 16 6 18 C2.5609232 17.80894018 0.90749499 16.93504967 -1.9375 14.9375 C-5.51122514 12.67657185 -6.85908686 12.25463564 -11 13 C-13.09799691 14.23314217 -15.08961788 15.58094224 -17.1015625 16.94921875 C-19 18 -19 18 -21.9375 17.875 C-24 17 -24 17 -25 16 C-25.52228744 11.56055677 -25.35159102 9.53772745 -22.875 5.75 C-16.17264377 -0.66094944 -8.93679833 -1.31667446 0 0 Z " fill="#0D2642" transform="translate(325,479)"/>
<path d="M0 0 C3.5548599 2.3699066 5.42999164 4.30123747 7.8125 7.875 C8.18489025 11.10238221 8.26397903 12.97204195 6.8125 15.875 C3.07762223 15.3770163 1.00012365 15.00008244 -2.1875 12.875 C-9.16830838 11.8254379 -13.35879605 13.21777399 -19.1875 16.875 C-22 17.25 -22 17.25 -24.1875 16.875 C-26.1875 14.875 -26.1875 14.875 -26.25 11.625 C-24.8292651 6.61064153 -22.44898744 4.68196777 -18.1875 1.875 C-11.95778836 -1.52302453 -6.78593255 -2.39503502 0 0 Z " fill="#0D2643" transform="translate(233.1875,479.125)"/>
<path d="M0 0 C2.75547503 2.16501609 4.76504423 4.08657076 6.625 7.0625 C6.375 9.375 6.375 9.375 5.625 11.0625 C0.97730087 10.59773009 -2.41090251 9.20353317 -6.4453125 7 C-11.05201287 4.76192695 -15.77776687 4.84689613 -20.8125 4.8125 C-21.56337891 4.791875 -22.31425781 4.77125 -23.08789062 4.75 C-27.79297226 4.71689476 -30.40942888 5.30863116 -34.375 8.0625 C-36.6875 7.75 -36.6875 7.75 -38.375 7.0625 C-38.705 5.7425 -39.035 4.4225 -39.375 3.0625 C-27.25191867 -8.64385041 -14.24453794 -8.17741993 0 0 Z " fill="#0E2742" transform="translate(335.375,455.9375)"/>
<path d="M0 0 C5.94 0 11.88 0 18 0 C18 29.7 18 59.4 18 90 C12.06 90 6.12 90 0 90 C0 60.3 0 30.6 0 0 Z M2 2 C2 30.71 2 59.42 2 89 C6.62 89 11.24 89 16 89 C16 60.29 16 31.58 16 2 C11.38 2 6.76 2 2 2 Z " fill="#212D43" transform="translate(553,415)"/>
<path d="M0 0 C3.0625 2.375 3.0625 2.375 5 5 C4.8125 7.8125 4.8125 7.8125 4 10 C-1.75 9.125 -1.75 9.125 -4 8 C-13.90260509 7.09841954 -23.1278087 8.39680303 -31.69921875 13.65625 C-34 15 -34 15 -36.3125 14.6875 C-36.869375 14.460625 -37.42625 14.23375 -38 14 C-38.33 12.68 -38.66 11.36 -39 10 C-28.56834444 -0.61605351 -14.2560344 -7.91651468 0 0 Z " fill="#0C243F" transform="translate(240,454)"/>
<path d="M0 0 C2.8100346 1.79363911 4.50940468 3.01880935 6 6 C6.51124099 11.20460087 6.86132441 15.56445931 4.125 20.125 C1.35007028 22.5734674 0.44005451 22.96678834 -3.3125 23.25 C-7.24058469 22.98368917 -8.95647943 22.43481646 -12 20 C-14.5519705 15.79148725 -14.69773288 11.80106674 -14 7 C-10.51364094 0.49212975 -7.3280415 -1.05287953 0 0 Z " fill="#0D1A30" transform="translate(554,537)"/>
<path d="M0 0 C11.16564417 -0.49079755 11.16564417 -0.49079755 15.1875 1.875 C18.44445344 5.69349714 18.27189 8.64538964 18.22265625 13.51953125 C17.93708398 16.70090655 17.0542284 18.56535893 15 21 C10.25368713 24.16420858 5.63243123 23.12112755 0 23 C0 15.41 0 7.82 0 0 Z " fill="#213044" transform="translate(663,537)"/>
<path d="M0 0 C0.66 0 1.32 0 2 0 C3.28718413 4.07342047 4.5687739 8.14854571 5.84521484 12.2253418 C6.2802045 13.61189162 6.71671763 14.99796445 7.15478516 16.38354492 C7.7842914 18.37555392 8.4082939 20.36921559 9.03125 22.36328125 C9.40830078 23.56251221 9.78535156 24.76174316 10.17382812 25.99731445 C11 29 11 29 11 32 C4.4 32 -2.2 32 -9 32 C-6.75251616 21.8863227 -6.75251616 21.8863227 -5.52734375 18.359375 C-5.26759766 17.59882813 -5.00785156 16.83828125 -4.74023438 16.0546875 C-4.34288086 14.91386719 -4.34288086 14.91386719 -3.9375 13.75 C-1.56707268 6.98530159 -1.56707268 6.98530159 0 0 Z " fill="#FAFBFC" transform="translate(896,439)"/>
<path d="M0 0 C2.31 0 4.62 0 7 0 C7.27714844 0.85464844 7.55429687 1.70929687 7.83984375 2.58984375 C8.20207031 3.69457031 8.56429687 4.79929687 8.9375 5.9375 C9.29714844 7.03964844 9.65679688 8.14179687 10.02734375 9.27734375 C10.73856668 11.88123475 10.73856668 11.88123475 12 13 C13.65 8.71 15.3 4.42 17 0 C18.98 0 20.96 0 23 0 C23 7.59 23 15.18 23 23 C21.68 23 20.36 23 19 23 C18.505 16.565 18.505 16.565 18 10 C16.35 14.29 14.7 18.58 13 23 C12.01 23 11.02 23 10 23 C8.35 18.38 6.7 13.76 5 9 C4.67 13.62 4.34 18.24 4 23 C2.68 23 1.36 23 0 23 C0 15.41 0 7.82 0 0 Z " fill="#081327" transform="translate(846,537)"/>
<path d="M0 0 C2 1 2 1 3.05322266 3.74389648 C3.4197998 4.94087158 3.78637695 6.13784668 4.1640625 7.37109375 C4.36099701 8.00862076 4.55793152 8.64614777 4.76083374 9.30299377 C5.17619968 10.65279375 5.58785425 12.0037405 5.99609375 13.35571289 C6.62209103 15.42787082 7.25921623 17.49634084 7.8984375 19.56445312 C11 29.68175649 11 29.68175649 11 32 C4.4 32 -2.2 32 -9 32 C-6.75 21.875 -6.75 21.875 -5.2734375 17.08984375 C-4.9640625 16.08115234 -4.6546875 15.07246094 -4.3359375 14.03320312 C-4.01882813 13.01162109 -3.70171875 11.99003906 -3.375 10.9375 C-3.05015625 9.88111328 -2.7253125 8.82472656 -2.390625 7.73632812 C-1.59685528 5.15657652 -0.79992286 2.57784892 0 0 Z " fill="#F9FBFC" transform="translate(761,439)"/>
<path d="M0 0 C2.475 0.495 2.475 0.495 5 1 C6.33583899 5.84241633 7.25328119 9.93437617 7 15 C7.66 15 8.32 15 9 15 C9.04898438 14.41992188 9.09796875 13.83984375 9.1484375 13.2421875 C9.59649405 8.56076908 10.298021 4.42514541 12 0 C13.32 0 14.64 0 16 0 C17.32 4.29 18.64 8.58 20 13 C20.99 9.04 21.98 5.08 23 1 C24.65 0.67 26.3 0.34 28 0 C26.60695059 7.40774509 24.88100377 14.70170537 23 22 C21.35 22.33 19.7 22.66 18 23 C14.55580866 13.58997722 14.55580866 13.58997722 15 9 C14.34 9 13.68 9 13 9 C12.95101562 9.59167969 12.90203125 10.18335938 12.8515625 10.79296875 C12.43543133 15.19104472 11.95034405 18.96928897 10 23 C8.35 22.67 6.7 22.34 5 22 C4.16285091 18.70929159 3.33093104 15.41728353 2.5 12.125 C2.14228516 10.71927734 2.14228516 10.71927734 1.77734375 9.28515625 C1.55175781 8.38925781 1.32617188 7.49335937 1.09375 6.5703125 C0.88427734 5.74289551 0.67480469 4.91547852 0.45898438 4.06298828 C0 2 0 2 0 0 Z " fill="#11233B" transform="translate(565,537)"/>
<path d="M0 0 C11.17203312 -0.60717571 11.17203312 -0.60717571 14.8125 2.0625 C16.34925165 5.8639383 16.00397 8.05583215 15 12 C14.5875 12.66 14.175 13.32 13.75 14 C12.64370614 16.28906428 12.64370614 16.28906428 14.375 19.75 C14.91125 20.8225 15.4475 21.895 16 23 C14.35 23 12.7 23 11 23 C9.58398438 20.31445312 9.58398438 20.31445312 8.16796875 17.62890625 C7.00980201 15.67732013 7.00980201 15.67732013 4 15 C4 17.64 4 20.28 4 23 C2.68 23 1.36 23 0 23 C0 15.41 0 7.82 0 0 Z " fill="#030B20" transform="translate(699,537)"/>
<path d="M0 0 C11.43830787 -0.36897767 11.43830787 -0.36897767 13.8671875 1.2265625 C15.30620549 3.47936998 15.36944388 4.90365876 15.3125 7.5625 C15.30863281 8.34753906 15.30476562 9.13257813 15.30078125 9.94140625 C15 12 15 12 13 14 C13.3557806 17.37991574 14.35715799 20.04288438 16 23 C14.35 23 12.7 23 11 23 C9.58398438 20.31445312 9.58398438 20.31445312 8.16796875 17.62890625 C7.00980201 15.67732013 7.00980201 15.67732013 4 15 C4 17.64 4 20.28 4 23 C2.68 23 1.36 23 0 23 C0 15.41 0 7.82 0 0 Z " fill="#0A2647" transform="translate(620,537)"/>
<path d="M0 0 C11 0 11 0 15 3 C16.06651347 5.65517417 16.21572345 8.15687559 16 11 C14.5625 14 14.5625 14 12 16 C9.1973067 16.41106168 6.85762125 16.2381351 4 16 C4 18.31 4 20.62 4 23 C2.68 23 1.36 23 0 23 C0 15.41 0 7.82 0 0 Z " fill="#102037" transform="translate(519,537)"/>
<path d="M0 0 C5 1 5 1 7.01953125 3.72265625 C7.90705078 5.37587891 7.90705078 5.37587891 8.8125 7.0625 C9.41707031 8.16722656 10.02164063 9.27195312 10.64453125 10.41015625 C11.09183594 11.26480469 11.53914062 12.11945312 12 13 C12.33 8.71 12.66 4.42 13 0 C14.32 0 15.64 0 17 0 C17 7.59 17 15.18 17 23 C12 22 12 22 9.98046875 19.27734375 C9.38878906 18.17519531 8.79710937 17.07304688 8.1875 15.9375 C7.58292969 14.83277344 6.97835937 13.72804688 6.35546875 12.58984375 C5.90816406 11.73519531 5.46085938 10.88054688 5 10 C4.67 14.29 4.34 18.58 4 23 C2.68 23 1.36 23 0 23 C0 15.41 0 7.82 0 0 Z " fill="#06132D" transform="translate(898,537)"/>
<path d="M0 0 C1.65 0 3.3 0 5 0 C6.17430074 3.2681432 7.33811256 6.53992515 8.5 9.8125 C9.00080078 11.2056543 9.00080078 11.2056543 9.51171875 12.62695312 C9.82753906 13.51962891 10.14335937 14.41230469 10.46875 15.33203125 C10.76201172 16.15421143 11.05527344 16.9763916 11.35742188 17.82348633 C12 20 12 20 12 23 C10.68 23 9.36 23 8 23 C7.34 21.68 6.68 20.36 6 19 C3.69 19 1.38 19 -1 19 C-1.66 20.32 -2.32 21.64 -3 23 C-4.32 23 -5.64 23 -7 23 C-5.48526781 15.01323028 -2.83197448 7.59877122 0 0 Z " fill="#0F1E35" transform="translate(475,537)"/>
<path d="M0 0 C4.95 0 9.9 0 15 0 C15 1.32 15 2.64 15 4 C11.7 4 8.4 4 5 4 C5 5.65 5 7.3 5 9 C7.97 9 10.94 9 14 9 C14 10.32 14 11.64 14 13 C11.03 13 8.06 13 5 13 C5 14.98 5 16.96 5 19 C8.3 19 11.6 19 15 19 C15 20.32 15 21.64 15 23 C10.05 23 5.1 23 0 23 C0 15.41 0 7.82 0 0 Z " fill="#0A142A" transform="translate(721,537)"/>
<path d="M0 0 C4.95 0 9.9 0 15 0 C15 1.32 15 2.64 15 4 C11.7 4 8.4 4 5 4 C5 5.65 5 7.3 5 9 C7.97 9 10.94 9 14 9 C14 10.32 14 11.64 14 13 C10.7 13 7.4 13 4 13 C4 14.98 4 16.96 4 19 C7.63 19 11.26 19 15 19 C15 20.32 15 21.64 15 23 C10.05 23 5.1 23 0 23 C0 15.41 0 7.82 0 0 Z " fill="#223C57" transform="translate(598,537)"/>
<path d="M0 0 C4.95 0 9.9 0 15 0 C15 1.32 15 2.64 15 4 C11.37 4 7.74 4 4 4 C4 5.65 4 7.3 4 9 C7.3 9 10.6 9 14 9 C14 10.32 14 11.64 14 13 C10.7 13 7.4 13 4 13 C4 14.98 4 16.96 4 19 C7.63 19 11.26 19 15 19 C15 20.32 15 21.64 15 23 C10.05 23 5.1 23 0 23 C0 15.41 0 7.82 0 0 Z " fill="#1A324D" transform="translate(642,537)"/>
<path d="M0 0 C4.62 0 9.24 0 14 0 C14 1.32 14 2.64 14 4 C10.7 4 7.4 4 4 4 C4 5.65 4 7.3 4 9 C7.3 9 10.6 9 14 9 C14 10.32 14 11.64 14 13 C10.7 13 7.4 13 4 13 C4 14.98 4 16.96 4 19 C7.3 19 10.6 19 14 19 C14 20.32 14 21.64 14 23 C9.38 23 4.76 23 0 23 C0 15.41 0 7.82 0 0 Z " fill="#051228" transform="translate(877,537)"/>
<path d="M0 0 C4.75 0.875 4.75 0.875 7 2 C8.95549256 2.12257461 10.91570618 2.17552388 12.875 2.1875 C13.92429687 2.20167969 14.97359375 2.21585938 16.0546875 2.23046875 C18.97179808 2.00220678 20.48405124 1.38097632 23 0 C25.25 0.375 25.25 0.375 27 1 C26.70540991 4.53508103 26.25118587 5.76203444 23.625 8.25 C18.43913182 11.70724546 13.05248435 11.64848047 7 11 C3.72786373 9.64090403 1.49659542 7.49659542 -1 5 C-0.625 2.375 -0.625 2.375 0 0 Z " fill="#0E2541" transform="translate(258,526)"/>
<path d="M0 0 C1.32 0 2.64 0 4 0 C4.06058594 1.21558594 4.12117187 2.43117188 4.18359375 3.68359375 C4.26798332 5.26824228 4.3526321 6.85287702 4.4375 8.4375 C4.47681641 9.23994141 4.51613281 10.04238281 4.55664062 10.86914062 C4.4054296 14.75239561 4.4054296 14.75239561 6 18 C7.66617115 18.04063832 9.33388095 18.042721 11 18 C12.585869 14.828262 12.37866445 11.36486178 12.5625 7.875 C12.60568359 7.12089844 12.64886719 6.36679687 12.69335938 5.58984375 C12.7994832 3.72678112 12.90025001 1.86341476 13 0 C14.32 0 15.64 0 17 0 C17.13539281 2.89740622 17.23426829 5.78845621 17.3125 8.6875 C17.35439453 9.50412109 17.39628906 10.32074219 17.43945312 11.16210938 C17.52872668 15.57222304 17.44267092 17.41453201 14.69921875 21.04296875 C12 23 12 23 8.5 23.625 C3.98117512 22.81806699 2.75784066 21.64746667 0 18 C-0.59558392 14.86826377 -0.47529243 11.86070008 -0.3125 8.6875 C-0.28994141 7.85154297 -0.26738281 7.01558594 -0.24414062 6.15429688 C-0.1855061 4.10208851 -0.09583215 2.05080798 0 0 Z " fill="#08152B" transform="translate(789,537)"/>
<path d="M0 0 C2.9375 1.875 2.9375 1.875 5 4 C5 4.66 5 5.32 5 6 C3.125 6.625 3.125 6.625 1 7 C0.34 6.34 -0.32 5.68 -1 5 C-3.5 4.58333333 -3.5 4.58333333 -6 5 C-8.45811625 8.68717438 -8.31118164 10.64345704 -8 15 C-7.01 16.485 -7.01 16.485 -6 18 C-2.30589065 18.48606702 -0.23039571 17.67089434 3 16 C3.66 16.33 4.32 16.66 5 17 C3.63016497 20.16115776 3.0109362 20.9927092 0 23 C-4.21178243 23.46797583 -6.28599114 23.46565795 -9.875 21.125 C-13.03371908 17.96628092 -13.20006861 16.06048933 -13.3125 11.6875 C-13.28696011 7.79011267 -13.17420634 6.2903439 -11.125 2.875 C-7.44036356 -0.3761498 -4.88113514 -0.41365552 0 0 Z " fill="#060D21" transform="translate(755,537)"/>
<path d="M0 0 C3.63 0 7.26 0 11 0 C11.66 0.66 12.32 1.32 13 2 C9.04 1.67 5.08 1.34 1 1 C1.66 1.66 2.32 2.32 3 3 C3.26991906 5.68839385 3.08737357 8.29141936 3 11 C6.465 10.505 6.465 10.505 10 10 C10 7.69 10 5.38 10 3 C11.65 3.33 13.3 3.66 15 4 C15.36923077 11.50769231 15.36923077 11.50769231 13.5 14 C13.005 14.33 12.51 14.66 12 15 C12.495 15.94875 12.99 16.8975 13.5 17.875 C15 21 15 21 15 23 C12.6875 22.875 12.6875 22.875 10 22 C8.9349985 20.03384339 7.93166826 18.03273074 7 16 C6.01 15.67 5.02 15.34 4 15 C4 17.64 4 20.28 4 23 C2.68 23 1.36 23 0 23 C0 15.41 0 7.82 0 0 Z " fill="#030C20" transform="translate(767,537)"/>
<path d="M0 0 C5.61 0 11.22 0 17 0 C17 1.32 17 2.64 17 4 C15.02 4 13.04 4 11 4 C11 10.27 11 16.54 11 23 C9.35 23 7.7 23 6 23 C6 16.73 6 10.46 6 4 C4.35 4 2.7 4 1 4 C0.67 2.68 0.34 1.36 0 0 Z " fill="#253448" transform="translate(823,537)"/>
<path d="M0 0 C3 0.5 3 0.5 4.875 2.0625 C6.42190908 5.41413635 6.39126176 7.84822358 6 11.5 C4.5 13.9375 4.5 13.9375 3 15.5 C-0.375 15.25 -0.375 15.25 -4 14.5 C-5.97087967 12.18635865 -5.99774867 10.52161273 -6.3125 7.5 C-5.8239186 2.80961858 -4.7848904 0.79748173 0 0 Z " fill="#F5F6F7" transform="translate(550,540.5)"/>
<path d="M0 0 C5.28 0 10.56 0 16 0 C16 1.32 16 2.64 16 4 C14.02 4 12.04 4 10 4 C10 10.27 10 16.54 10 23 C8.68 23 7.36 23 6 23 C6 16.4 6 9.8 6 3 C4.02 3 2.04 3 0 3 C0 2.01 0 1.02 0 0 Z " fill="#0C1A30" transform="translate(921,537)"/>
<path d="M0 0 C6 0 6 0 7.9375 1.4375 C9.52553026 5.26745533 9.20492085 9.04968988 8 13 C5 15 5 15 0 15 C0 10.05 0 5.1 0 0 Z " fill="#FAFBFB" transform="translate(668,541)"/>
<path d="M0 0 C2.64 0 5.28 0 8 0 C7.67 0.66 7.34 1.32 7 2 C7.99 2.66 8.98 3.32 10 4 C10.1875 6.625 10.1875 6.625 10 9 C8.02 9.66 6.04 10.32 4 11 C4.66 11.66 5.32 12.32 6 13 C4.68 13 3.36 13 2 13 C2 15.64 2 18.28 2 21 C1.34 21 0.68 21 0 21 C0 14.07 0 7.14 0 0 Z " fill="#0B223F" transform="translate(700,538)"/>
<path d="M0 0 C4.95 0 9.9 0 15 0 C14.34 0.66 13.68 1.32 13 2 C9.29100027 1.96658559 5.69044879 1.42912195 2 1 C2 7.6 2 14.2 2 21 C3.41577477 19.81575674 3.41577477 19.81575674 3.0625 16.4375 C3.041875 15.303125 3.02125 14.16875 3 13 C3.33 13 3.66 13 4 13 C4 14.98 4 16.96 4 19 C7.63 19 11.26 19 15 19 C15 20.32 15 21.64 15 23 C10.05 23 5.1 23 0 23 C0 15.41 0 7.82 0 0 Z " fill="#040F26" transform="translate(642,537)"/>
<path d="M0 0 C10.125 0 10.125 0 14 2 C13.34 2.66 12.68 3.32 12 4 C11.34 4 10.68 4 10 4 C10.020625 4.804375 10.04125 5.60875 10.0625 6.4375 C10 9 10 9 9 10 C6.66702567 10.04092937 4.33294775 10.04241723 2 10 C1.67 13.63 1.34 17.26 1 21 C0.67 21 0.34 21 0 21 C0 14.07 0 7.14 0 0 Z " fill="#1E3751" transform="translate(768,538)"/>
<path d="M0 0 C4.95 0 9.9 0 15 0 C15 0.33 15 0.66 15 1 C10.71 1 6.42 1 2 1 C2 7.6 2 14.2 2 21 C3.41577477 19.81575674 3.41577477 19.81575674 3.0625 16.4375 C3.041875 15.303125 3.02125 14.16875 3 13 C3.33 13 3.66 13 4 13 C4 14.98 4 16.96 4 19 C7.63 19 11.26 19 15 19 C15 20.32 15 21.64 15 23 C10.05 23 5.1 23 0 23 C0 15.41 0 7.82 0 0 Z " fill="#071229" transform="translate(598,537)"/>
<path d="M0 0 C4.95 0 9.9 0 15 0 C15 1.32 15 2.64 15 4 C11.37 4 7.74 4 4 4 C3.94392578 5.55460938 3.94392578 5.55460938 3.88671875 7.140625 C3.82104212 8.51045184 3.75459536 9.88024191 3.6875 11.25 C3.66494141 11.93191406 3.64238281 12.61382813 3.61914062 13.31640625 C3.37434012 17.90085202 2.89514206 19.13981058 0 23 C0 15.41 0 7.82 0 0 Z " fill="#2A3D52" transform="translate(721,537)"/>
<path d="M0 0 C1.32 0 2.64 0 4 0 C4 7.59 4 15.18 4 23 C2.68 23 1.36 23 0 23 C0 15.41 0 7.82 0 0 Z " fill="#06142A" transform="translate(493,537)"/>
<path d="M0 0 C1.32 0 2.64 0 4 0 C4 7.59 4 15.18 4 23 C2.68 23 1.36 23 0 23 C0 15.41 0 7.82 0 0 Z " fill="#05132A" transform="translate(813,537)"/>
<path d="M0 0 C1.65 0 3.3 0 5 0 C5.86762314 2.24561282 6.7192103 4.49526255 7.5625 6.75 C7.80935547 7.38421875 8.05621094 8.0184375 8.31054688 8.671875 C9.58197079 12.11009179 10.46686355 14.52168882 9 18 C8.34 16.35 7.68 14.7 7 13 C7 13.99 7 14.98 7 16 C4.69 16 2.38 16 0 16 C0 15.67 0 15.34 0 15 C1.65 15 3.3 15 5 15 C4.34 13.02 3.68 11.04 3 9 C1.68 10.32 0.36 11.64 -1 13 C-0.67 8.71 -0.34 4.42 0 0 Z " fill="#0B1B33" transform="translate(475,537)"/>
<path d="M0 0 C3.97915085 -0.02934144 7.95827337 -0.04691265 11.9375 -0.0625 C13.05447266 -0.07087891 14.17144531 -0.07925781 15.32226562 -0.08789062 C21.63992667 -0.10641749 27.73763227 0.15660583 34 1 C34.495 2.485 34.495 2.485 35 4 C31.95613276 4.08226668 29.92824652 3.97608217 27 3 C24.86205475 2.9166196 22.72157991 2.89266253 20.58203125 2.90234375 C19.32841797 2.90556641 18.07480469 2.90878906 16.78320312 2.91210938 C14.81770508 2.92467773 14.81770508 2.92467773 12.8125 2.9375 C11.47721519 2.94251683 10.14192859 2.94707941 8.80664062 2.95117188 C5.53771527 2.96297305 2.26888009 2.97943703 -1 3 C-0.67 2.01 -0.34 1.02 0 0 Z " fill="#213852" transform="translate(259,307)"/>
<path d="M0 0 C3.3 0 6.6 0 10 0 C10 0.33 10 0.66 10 1 C7.03 1 4.06 1 1 1 C1 7.93 1 14.86 1 22 C1.66 22 2.32 22 3 22 C3 19.36 3 16.72 3 14 C5.375 13.875 5.375 13.875 8 14 C8.66 14.66 9.32 15.32 10 16 C10.33 15.34 10.66 14.68 11 14 C12.65 16.97 14.3 19.94 16 23 C14.35 23 12.7 23 11 23 C9.58398438 20.31445312 9.58398438 20.31445312 8.16796875 17.62890625 C7.00980201 15.67732013 7.00980201 15.67732013 4 15 C4 17.64 4 20.28 4 23 C2.68 23 1.36 23 0 23 C0 15.41 0 7.82 0 0 Z " fill="#070D1E" transform="translate(620,537)"/>
<path d="M0 0 C0.99 0.33 1.98 0.66 3 1 C3.36923077 8.50769231 3.36923077 8.50769231 1.5 11 C1.005 11.33 0.51 11.66 0 12 C0.495 12.94875 0.99 13.8975 1.5 14.875 C3 18 3 18 3 20 C0.6875 19.9375 0.6875 19.9375 -2 19 C-3.625 15.5625 -3.625 15.5625 -5 12 C-5.99 11.34 -6.98 10.68 -8 10 C-5.69 9.34 -3.38 8.68 -1 8 C-0.67 5.36 -0.34 2.72 0 0 Z " fill="#0F2641" transform="translate(779,540)"/>
<path d="M0 0 C0.33 0 0.66 0 1 0 C1.12375 1.0725 1.2475 2.145 1.375 3.25 C1.89719785 6.3831871 2.29117129 8.38649726 4 11 C6.7238399 12.36191995 8.98096827 12.06161289 12 12 C12.99 12 13.98 12 15 12 C13.9375 14 13.9375 14 12 16 C8.15491263 16.49843725 5.73783363 16.32792606 2.1875 14.75 C-0.10354004 12.91716796 -1.05359338 11.75318288 -2 9 C-2 8.01 -2 7.02 -2 6 C-1.34 6 -0.68 6 0 6 C0 4.02 0 2.04 0 0 Z " fill="#122741" transform="translate(542,544)"/>
<path d="M0 0 C4.45821166 -0.08674429 8.91620804 -0.14030513 13.375 -0.1875 C14.64601563 -0.21263672 15.91703125 -0.23777344 17.2265625 -0.26367188 C18.43828125 -0.27333984 19.65 -0.28300781 20.8984375 -0.29296875 C22.01911621 -0.3086792 23.13979492 -0.32438965 24.29443359 -0.34057617 C25.18727051 -0.22818604 26.08010742 -0.1157959 27 0 C27.66 0.99 28.32 1.98 29 3 C19.43 3 9.86 3 0 3 C0 2.01 0 1.02 0 0 Z " fill="#19304C" transform="translate(257,330)"/>
<path d="M0 0 C3.96 0 7.92 0 12 0 C12.33 0.99 12.66 1.98 13 3 C9.7 3 6.4 3 3 3 C3 4.65 3 6.3 3 8 C6.3 8 9.6 8 13 8 C13 9.32 13 10.64 13 12 C9.37 11.67 5.74 11.34 2 11 C1.34 7.37 0.68 3.74 0 0 Z " fill="#1E354F" transform="translate(878,538)"/>
<path d="M0 0 C2.62123224 2.17187815 4.07311173 3.77459465 4.453125 7.22265625 C4.44796875 8.09792969 4.4428125 8.97320313 4.4375 9.875 C4.44265625 10.75285156 4.4478125 11.63070312 4.453125 12.53515625 C4.1875 14.8125 4.1875 14.8125 2.1875 16.8125 C2.1875 13.5125 2.1875 10.2125 2.1875 6.8125 C1.8575 9.4525 1.5275 12.0925 1.1875 14.8125 C0.8575 14.8125 0.5275 14.8125 0.1875 14.8125 C0.07792969 14.11382813 -0.03164063 13.41515625 -0.14453125 12.6953125 C-0.30308594 11.78523437 -0.46164062 10.87515625 -0.625 9.9375 C-0.77582031 9.03257812 -0.92664063 8.12765625 -1.08203125 7.1953125 C-1.64301301 4.46837522 -1.64301301 4.46837522 -4.8125 2.8125 C-6.46799531 2.42750109 -8.1347433 2.08456865 -9.8125 1.8125 C-9.8125 1.4825 -9.8125 1.1525 -9.8125 0.8125 C-3.57730263 -1.51041667 -3.57730263 -1.51041667 0 0 Z " fill="#081428" transform="translate(676.8125,538.1875)"/>
<path d="M0 0 C0.99 0 1.98 0 3 0 C3.03738281 1.12019531 3.07476563 2.24039063 3.11328125 3.39453125 C3.17894257 4.8672209 3.24538986 6.33987566 3.3125 7.8125 C3.33505859 8.55048828 3.35761719 9.28847656 3.38085938 10.04882812 C3.55557955 14.33107039 3.55557955 14.33107039 5.54296875 18.01171875 C6.26419922 18.50091797 6.26419922 18.50091797 7 19 C5.68 19.33 4.36 19.66 3 20 C0.32266002 17.32968716 -0.00280229 15.96278559 -0.29296875 12.109375 C-0.27314945 10.65595991 -0.23754845 9.20268833 -0.1875 7.75 C-0.17396484 7.00492188 -0.16042969 6.25984375 -0.14648438 5.4921875 C-0.11127204 3.66114584 -0.05746851 1.83047831 0 0 Z " fill="#0F2744" transform="translate(790,538)"/>
<path d="M0 0 C1.32 0.66 2.64 1.32 4 2 C4 4.97 4 7.94 4 11 C2.68 11 1.36 11 0 11 C-1.8253125 11.2784375 -1.8253125 11.2784375 -3.6875 11.5625 C-5.3271875 11.7790625 -5.3271875 11.7790625 -7 12 C-8 11 -8 11 -8.09765625 8.93359375 C-8.08605469 8.10988281 -8.07445312 7.28617188 -8.0625 6.4375 C-8.05347656 5.61121094 -8.04445313 4.78492188 -8.03515625 3.93359375 C-8.02355469 3.29550781 -8.01195312 2.65742187 -8 2 C-7.67 2 -7.34 2 -7 2 C-7 4.64 -7 7.28 -7 10 C-5.02 9.67 -3.04 9.34 -1 9 C-0.84850702 5.37114676 -0.84850702 5.37114676 -2 2 C-1.01 2 -0.02 2 1 2 C0.67 1.34 0.34 0.68 0 0 Z " fill="#05122A" transform="translate(631,538)"/>
<path d="M0 0 C2.71609918 2.71609918 3.46920222 5.86595045 4.625 9.4375 C4.85445312 10.11876953 5.08390625 10.80003906 5.3203125 11.50195312 C6.29042613 14.44982818 7 16.87666842 7 20 C1.39 20 -4.22 20 -10 20 C-10.33 18.35 -10.66 16.7 -11 15 C-10.34 15.66 -9.68 16.32 -9 17 C-6.63490639 17.30059943 -4.25558119 17.49515012 -1.875 17.625 C-0.59367188 17.69976562 0.68765625 17.77453125 2.0078125 17.8515625 C2.99523437 17.90054687 3.98265625 17.94953125 5 18 C4.6390625 16.95199219 4.278125 15.90398437 3.90625 14.82421875 C3.43726182 13.44539349 2.9685249 12.06648275 2.5 10.6875 C2.26152344 9.99720703 2.02304687 9.30691406 1.77734375 8.59570312 C0.76791737 5.61068511 0 3.17341086 0 0 Z " fill="#165B9A" transform="translate(928,485)"/>
<path d="M0 0 C1.93333451 5.20419603 -0.90301931 9.17058992 -3 14 C-8.61 14 -14.22 14 -20 14 C-19.67 12.02 -19.34 10.04 -19 8 C-18.34 7.67 -17.68 7.34 -17 7 C-17.33 8.65 -17.66 10.3 -18 12 C-13.05 12 -8.1 12 -3 12 C-2.690625 10.39125 -2.38125 8.7825 -2.0625 7.125 C-1.125 2.25 -1.125 2.25 0 0 Z " fill="#195C9B" transform="translate(879,491)"/>
<path d="M0 0 C0.33 0 0.66 0 1 0 C1 3.3 1 6.6 1 10 C1.66 8.02 2.32 6.04 3 4 C5.34178753 7.51268129 6 10.75106254 6 15 C4.02 15 2.04 15 0 15 C-1.62077189 9.38963576 -2.55579195 5.53754923 0 0 Z " fill="#213751" transform="translate(474,539)"/>
<path d="M0 0 C0.66 0.66 1.32 1.32 2 2 C2.66 1.67 3.32 1.34 4 1 C4.63019694 9.03501094 4.63019694 9.03501094 2 13.0625 C1.34 13.701875 0.68 14.34125 0 15 C-0.99 14.67 -1.98 14.34 -3 14 C-2.67 13.67 -2.34 13.34 -2 13 C-4.31 13 -6.62 13 -9 13 C-9 12.67 -9 12.34 -9 12 C-6.69 11.34 -4.38 10.68 -2 10 C-1.34 6.7 -0.68 3.4 0 0 Z " fill="#071227" transform="translate(556,544)"/>
<path d="M0 0 C1.99954746 -0.04254356 4.00041636 -0.04080783 6 0 C7 1 7 1 7.125 4 C7 7 7 7 6 8 C4.00041636 8.04080783 1.99954746 8.04254356 0 8 C0 5.36 0 2.72 0 0 Z " fill="#FBFDFC" transform="translate(523,541)"/>
<path d="M0 0 C0.33 0.66 0.66 1.32 1 2 C1.66 2.33 2.32 2.66 3 3 C3 4.65 3 6.3 3 8 C7.62 7.67 12.24 7.34 17 7 C17.33 6.01 17.66 5.02 18 4 C18.66 5.98 19.32 7.96 20 10 C14.06 10 8.12 10 2 10 C0 4 0 4 0 0 Z " fill="#195D9A" transform="translate(780,495)"/>
<path d="M0 0 C1.16796875 2.28515625 1.16796875 2.28515625 2.1875 5.0625 C2.53167969 5.98160156 2.87585938 6.90070312 3.23046875 7.84765625 C3.48441406 8.55792969 3.73835937 9.26820313 4 10 C2.35 10 0.7 10 -1 10 C-1.9765625 8.2421875 -2.953125 6.484375 -3.9296875 4.7265625 C-5.00897274 2.8387386 -5.00897274 2.8387386 -7 1 C-3.375 -1.125 -3.375 -1.125 0 0 Z " fill="#13253C" transform="translate(711,550)"/>
<path d="M0 0 C1.32 0 2.64 0 4 0 C5.32 5.61 6.64 11.22 8 17 C7.34 17 6.68 17 6 17 C5.67 17.99 5.34 18.98 5 20 C3.27706865 15.53665816 2.77759209 11.89798769 2.875 7.125 C2.89304687 5.97257813 2.91109375 4.82015625 2.9296875 3.6328125 C2.96449219 2.32957031 2.96449219 2.32957031 3 1 C2.34 1 1.68 1 1 1 C0.67 1.99 0.34 2.98 0 4 C0 2.68 0 1.36 0 0 Z " fill="#0A172D" transform="translate(577,537)"/>
<path d="M0 0 C0.33 0.66 0.66 1.32 1 2 C0.01 3.485 0.01 3.485 -1 5 C-1.66 4.67 -2.32 4.34 -3 4 C-3 9.61 -3 15.22 -3 21 C-3.66 21 -4.32 21 -5 21 C-5 14.4 -5 7.8 -5 1 C-3.35 0.67 -1.7 0.34 0 0 Z " fill="#0B2748" transform="translate(852,537)"/>
<path d="M0 0 C1.5 1.375 1.5 1.375 3 3 C3 3.66 3 4.32 3 5 C8.28 5 13.56 5 19 5 C19.33 4.01 19.66 3.02 20 2 C20.99 3.65 21.98 5.3 23 7 C19.72963272 7.14510162 16.46008993 7.23399373 13.1875 7.3125 C11.7943457 7.3753418 11.7943457 7.3753418 10.37304688 7.43945312 C7.82388965 7.48546679 5.50536051 7.47778787 3 7 C0.81411738 4.55037286 0 3.27508229 0 0 Z " fill="#030B20" transform="translate(630,498)"/>
<path d="M0 0 C-0.99 0.680625 -0.99 0.680625 -2 1.375 C-4.65471493 4.85931335 -4.61826297 7.35620456 -4.47265625 11.6484375 C-4.15664596 14.30283495 -4.15664596 14.30283495 -1.5 16.625 C-0.675 17.07875 0.15 17.5325 1 18 C-2.82117942 17.46928064 -5.20159882 16.69866781 -8 14 C-8.82288053 10.28285002 -8.65977123 6.74056738 -8 3 C-4.27810651 -1.4260355 -4.27810651 -1.4260355 0 0 Z " fill="#112C48" transform="translate(750,540)"/>
<path d="M0 0 C1.32 0 2.64 0 4 0 C2.98408579 5.46864457 1.92908943 10.76390013 0 16 C-0.144375 15.360625 -0.28875 14.72125 -0.4375 14.0625 C-0.81007181 12.02454854 -0.81007181 12.02454854 -2 11 C-1.93621032 9.32987017 -1.79971885 7.66219015 -1.625 6 C-1.53476562 5.0925 -1.44453125 4.185 -1.3515625 3.25 C-1 1 -1 1 0 0 Z " fill="#071227" transform="translate(589,537)"/>
<path d="M0 0 C0 6.93 0 13.86 0 21 C-0.33 21 -0.66 21 -1 21 C-1.33 16.71 -1.66 12.42 -2 8 C-2.99 8 -3.98 8 -5 8 C-6 5 -6 5 -6 1 C-4 0 -4 0 0 0 Z " fill="#183656" transform="translate(868,538)"/>
<path d="M0 0 C6.6 0 13.2 0 20 0 C20 0.99 20 1.98 20 3 C13.4 3 6.8 3 0 3 C0 2.01 0 1.02 0 0 Z " fill="#0E223B" transform="translate(260,675)"/>
<path d="M0 0 C0.66 0.33 1.32 0.66 2 1 C0.60721983 1.65239158 -0.78939212 2.29660552 -2.1875 2.9375 C-2.96480469 3.29714844 -3.74210937 3.65679688 -4.54296875 4.02734375 C-9.33206736 5.92318724 -13.68761404 6.11426652 -18.8125 6.0625 C-19.97394531 6.05347656 -21.13539063 6.04445313 -22.33203125 6.03515625 C-23.21246094 6.02355469 -24.09289062 6.01195312 -25 6 C-25 5.01 -25 4.02 -25 3 C-23.865625 3.03480469 -22.73125 3.06960938 -21.5625 3.10546875 C-10.47282033 3.34089828 -10.47282033 3.34089828 0 0 Z " fill="#0C1E37" transform="translate(289,562)"/>
<path d="M0 0 C0.7425 1.0209375 0.7425 1.0209375 1.5 2.0625 C3.74267312 4.19795864 3.74267312 4.19795864 6.046875 4.04296875 C8.04389436 3.77740767 10.02452318 3.39509536 12 3 C12.33 2.01 12.66 1.02 13 0 C14.32 0.33 15.64 0.66 17 1 C15.63016497 4.16115776 15.0109362 4.9927092 12 7 C7.80521636 7.46608707 5.6892808 7.42530092 2.0625 5.1875 C0 3 0 3 0 0 Z " fill="#101C31" transform="translate(743,553)"/>
<path d="M0 0 C6.27 0 12.54 0 19 0 C18.01 1.485 18.01 1.485 17 3 C15.12060547 3.34057617 15.12060547 3.34057617 12.8671875 3.29296875 C12.06152344 3.28330078 11.25585938 3.27363281 10.42578125 3.26367188 C9.58402344 3.23853516 8.74226563 3.21339844 7.875 3.1875 C7.02550781 3.17396484 6.17601562 3.16042969 5.30078125 3.14648438 C3.20025163 3.11108219 1.10004707 3.05727401 -1 3 C-0.67 2.01 -0.34 1.02 0 0 Z " fill="#14304E" transform="translate(262,615)"/>
<path d="M0 0 C0.66 0 1.32 0 2 0 C2.33 2.31 2.66 4.62 3 7 C2.01 7.33 1.02 7.66 0 8 C0 9.65 0 11.3 0 13 C-0.66 13 -1.32 13 -2 13 C-2.33 13.66 -2.66 14.32 -3 15 C-3.05437607 13.41705218 -3.09296271 11.83355744 -3.125 10.25 C-3.14820313 9.36828125 -3.17140625 8.4865625 -3.1953125 7.578125 C-2.9631915 4.51412782 -2.20214146 2.20214146 0 0 Z " fill="#172B45" transform="translate(578,538)"/>
<path d="M0 0 C1.99954746 -0.04254356 4.00041636 -0.04080783 6 0 C7 1 7 1 7.125 3.5 C7 6 7 6 6 7 C4.00041636 7.04080783 1.99954746 7.04254356 0 7 C0 4.69 0 2.38 0 0 Z " fill="#F8FBFA" transform="translate(771,541)"/>
<path d="M0 0 C1.99954746 -0.04254356 4.00041636 -0.04080783 6 0 C7 1 7 1 7.125 3.5 C7 6 7 6 6 7 C4.00041636 7.04080783 1.99954746 7.04254356 0 7 C0 4.69 0 2.38 0 0 Z " fill="#FCFDFC" transform="translate(703,541)"/>
<path d="M0 0 C1.99954746 -0.04254356 4.00041636 -0.04080783 6 0 C7 1 7 1 7.125 3.5 C7 6 7 6 6 7 C4.00041636 7.04080783 1.99954746 7.04254356 0 7 C0 4.69 0 2.38 0 0 Z " fill="#FBFCFC" transform="translate(624,541)"/>
<path d="M0 0 C1.98 0 3.96 0 6 0 C6 0.33 6 0.66 6 1 C4.35 1 2.7 1 1 1 C1 3.97 1 6.94 1 10 C3.64 9.34 6.28 8.68 9 8 C8.5 9.875 8.5 9.875 7 12 C4.34822355 12.98494554 1.79452693 13.45912382 -1 14 C-1.02694851 12.04174127 -1.04637218 10.08337774 -1.0625 8.125 C-1.07410156 7.03445313 -1.08570313 5.94390625 -1.09765625 4.8203125 C-1 2 -1 2 0 0 Z " fill="#0D1B35" transform="translate(522,539)"/>
<path d="M0 0 C1.65 0.33 3.3 0.66 5 1 C5.84454356 4.37817425 6.10844919 6.67465243 5 10 C3.02 8.35 1.04 6.7 -1 5 C-0.67 3.35 -0.34 1.7 0 0 Z " fill="#0A1E37" transform="translate(258,526)"/>
<path d="M0 0 C0.66 0.33 1.32 0.66 2 1 C2 4.63 2 8.26 2 12 C-1.74368742 13.87184371 -2.8400791 14.23999767 -6.75 14.125 C-7.54921875 14.10695313 -8.3484375 14.08890625 -9.171875 14.0703125 C-9.77515625 14.04710937 -10.3784375 14.02390625 -11 14 C-11 13.67 -11 13.34 -11 13 C-10.0925 12.938125 -9.185 12.87625 -8.25 12.8125 C-4.90331638 12.25083441 -4.90331638 12.25083441 -2.6875 9.875 C-0.72436895 6.53040635 -0.30110137 3.83904245 0 0 Z " fill="#15324F" transform="translate(678,544)"/>
<path d="M0 0 C0.33 0.99 0.66 1.98 1 3 C0.67 3.66 0.34 4.32 0 5 C4.95 5 9.9 5 15 5 C15.33 4.34 15.66 3.68 16 3 C15.67 4.32 15.34 5.64 15 7 C9.39 7 3.78 7 -2 7 C-1.34 4.69 -0.68 2.38 0 0 Z " fill="#165B9A" transform="translate(726,498)"/>
<path d="M0 0 C0.99 0.33 1.98 0.66 3 1 C3 2.65 3 4.3 3 6 C2.34 6 1.68 6 1 6 C0.67 6.99 0.34 7.98 0 9 C-0.66 9 -1.32 9 -2 9 C-2.33 11.31 -2.66 13.62 -3 16 C-3.33 16 -3.66 16 -4 16 C-4.5326514 9.741346 -2.81849506 5.54891215 0 0 Z " fill="#0C1F38" transform="translate(123,578)"/>
<path d="M0 0 C0.33 0 0.66 0 1 0 C1 6.93 1 13.86 1 21 C-0.32 20.34 -1.64 19.68 -3 19 C-3.75 15.875 -3.75 15.875 -4 13 C-2.68 13 -1.36 13 0 13 C0 8.71 0 4.42 0 0 Z " fill="#163756" transform="translate(912,538)"/>
<path d="M0 0 C0.33 0 0.66 0 1 0 C1 1.98 1 3.96 1 6 C4.3 6 7.6 6 11 6 C11 7.32 11 8.64 11 10 C7.7 10 4.4 10 1 10 C-0.1577506 6.52674819 -0.06866652 3.63932552 0 0 Z " fill="#04112B" transform="translate(601,540)"/>
<path d="M0 0 C1.32 0.66 2.64 1.32 4 2 C3.5359375 2.7734375 3.5359375 2.7734375 3.0625 3.5625 C1.70940713 6.66665423 1.38640576 9.65115007 1 13 C-0.32 12.34 -1.64 11.68 -3 11 C-3.32613618 6.32538149 -2.70582788 3.83325617 0 0 Z " fill="#081329" transform="translate(543,539)"/>
<path d="M0 0 C0.625 2.0625 0.625 2.0625 1 4 C0.484375 3.855625 -0.03125 3.71125 -0.5625 3.5625 C-3.68509571 2.84190099 -6.82550692 2.42733561 -10 2 C-10 4.64 -10 7.28 -10 10 C-10.33 10 -10.66 10 -11 10 C-11 6.7 -11 3.4 -11 0 C-2.25 -1.125 -2.25 -1.125 0 0 Z " fill="#1E3854" transform="translate(632,538)"/>
<path d="M0 0 C3.16115776 1.36983503 3.9927092 1.9890638 6 5 C5.625 8.6875 5.625 8.6875 5 12 C4.01 11.67 3.02 11.34 2 11 C1.855625 9.9275 1.71125 8.855 1.5625 7.75 C1.16250558 5.08337051 0.72408076 2.58600271 0 0 Z " fill="#182A41" transform="translate(709,537)"/>
<path d="M0 0 C2.24578708 2.24578708 2.85650419 4.069792 4 7 C4.99 8.485 4.99 8.485 6 10 C6 10.99 6 11.98 6 13 C4.68 13 3.36 13 2 13 C1.01 10.69 0.02 8.38 -1 6 C-0.34 6 0.32 6 1 6 C0.67 4.02 0.34 2.04 0 0 Z " fill="#11253F" transform="translate(481,547)"/>
<path d="M0 0 C1.0326802 2.78823655 1.04509293 3.8677274 0.0625 6.75 C-0.288125 7.4925 -0.63875 8.235 -1 9 C-2.65 8.67 -4.3 8.34 -6 8 C-6 7.34 -6 6.68 -6 6 C-5.34 5.67 -4.68 5.34 -4 5 C-4 4.01 -4 3.02 -4 2 C-2.68 2 -1.36 2 0 2 C0 1.34 0 0.68 0 0 Z " fill="#0E223A" transform="translate(576,551)"/>
<path d="M0 0 C1.41196151 2.30234022 2.02997047 3.59471753 1.828125 6.32421875 C1.63734375 7.10410156 1.4465625 7.88398437 1.25 8.6875 C0.97929688 9.86892578 0.97929688 9.86892578 0.703125 11.07421875 C0 13 0 13 -2 14 C-3.32854177 8.0819503 -2.66464729 5.22270869 0 0 Z " fill="#0B172E" transform="translate(862,540)"/>
<path d="M0 0 C2.64 0 5.28 0 8 0 C8 1.32 8 2.64 8 4 C5.36 4 2.72 4 0 4 C0 2.68 0 1.36 0 0 Z " fill="#111D31" transform="translate(504,550)"/>
<path d="M0 0 C1.98 0 3.96 0 6 0 C6.33 0.99 6.66 1.98 7 3 C2.71 3 -1.58 3 -6 3 C-6 5.64 -6 8.28 -6 11 C-6.33 11 -6.66 11 -7 11 C-7 8.03 -7 5.06 -7 2 C-3.535 1.505 -3.535 1.505 0 1 C0 0.67 0 0.34 0 0 Z " fill="#8CC2DC" transform="translate(192,448)"/>
<path d="M0 0 C3 1 6 2 9 3 C9.99 3 10.98 3 12 3 C12.33 3.99 12.66 4.98 13 6 C13.66 6.33 14.32 6.66 15 7 C9.14727744 6.54979057 4.91779881 3.96160773 0 1 C0 0.67 0 0.34 0 0 Z " fill="#0B1A32" transform="translate(235,607)"/>
<path d="M0 0 C0.33 0 0.66 0 1 0 C1 4.95 1 9.9 1 15 C-2 12 -2 12 -2.36328125 9.58984375 C-2.34652344 8.71457031 -2.32976562 7.83929688 -2.3125 6.9375 C-2.30863281 6.05964844 -2.30476562 5.18179687 -2.30078125 4.27734375 C-2 2 -2 2 0 0 Z " fill="#8BC3DE" transform="translate(185,504)"/>
<path d="M0 0 C3 0 3 0 4.625 1.25 C6.1368362 3.17415516 6.58791279 4.60989418 7 7 C5.35 6.67 3.7 6.34 2 6 C1.34 4.02 0.68 2.04 0 0 Z " fill="#091224" transform="translate(775,553)"/>
<path d="M0 0 C1.32 0.33 2.64 0.66 4 1 C3.34 1 2.68 1 2 1 C2 2.32 2 3.64 2 5 C5.465 4.505 5.465 4.505 9 4 C6.23776722 6.76223278 3.79293383 6.57856291 0 7 C0 4.69 0 2.38 0 0 Z " fill="#498DC3" transform="translate(340,574)"/>
<path d="M0 0 C3.96 0.33 7.92 0.66 12 1 C12 1.66 12 2.32 12 3 C8.04 3 4.08 3 0 3 C0 2.01 0 1.02 0 0 Z " fill="#08274A" transform="translate(723,556)"/>
<path d="M0 0 C1.32 1.32 2.64 2.64 4 4 C0.17189179 5.27603607 -3.23475107 4.86283987 -7.1875 4.5625 C-7.93708984 4.51029297 -8.68667969 4.45808594 -9.45898438 4.40429688 C-11.30637082 4.27486216 -13.15324371 4.13813482 -15 4 C-15 3.67 -15 3.34 -15 3 C-10.05 3 -5.1 3 0 3 C0 2.01 0 1.02 0 0 Z " fill="#071733" transform="translate(649,500)"/>
<path d="M0 0 C1.32 0 2.64 0 4 0 C4 0.99 4 1.98 4 3 C3.01 3.495 3.01 3.495 2 4 C1.67 4.99 1.34 5.98 1 7 C0.01 7 -0.98 7 -2 7 C-1.34 4.69 -0.68 2.38 0 0 Z " fill="#17273C" transform="translate(589,537)"/>
<path d="M0 0 C3.35595828 0.59927826 5.37801226 1.84622436 8 4 C7.67 6.64 7.34 9.28 7 12 C6.67 12 6.34 12 6 12 C5.71125 11.0925 5.4225 10.185 5.125 9.25 C3.82883171 5.50551382 2.80641022 2.80641022 0 0 Z " fill="#14304F" transform="translate(552,539)"/>
<path d="M0 0 C0.66 0.33 1.32 0.66 2 1 C1.38125 2.0725 0.7625 3.145 0.125 4.25 C-1.3323679 6.79780984 -2.72924491 9.35259355 -4 12 C-4.33292585 7.75519536 -4.43885872 5.64457375 -2 2.0625 C-1.34 1.381875 -0.68 0.70125 0 0 Z " fill="#09182F" transform="translate(308,569)"/>
<path d="M0 0 C0.33 0.99 0.66 1.98 1 3 C-0.43359375 5.04296875 -0.43359375 5.04296875 -2.4375 7.1875 C-3.09621094 7.90292969 -3.75492187 8.61835937 -4.43359375 9.35546875 C-4.95050781 9.89816406 -5.46742188 10.44085937 -6 11 C-6 8 -6 8 -4 6 C-4.33 5.01 -4.66 4.02 -5 3 C-4.360625 2.87625 -3.72125 2.7525 -3.0625 2.625 C-2.0415625 2.315625 -2.0415625 2.315625 -1 2 C-0.67 1.34 -0.34 0.68 0 0 Z " fill="#09162B" transform="translate(409,623)"/>
<path d="M0 0 C0 1.32 0 2.64 0 4 C-3.3 4 -6.6 4 -10 4 C-9.67 3.01 -9.34 2.02 -9 1 C-2.25 0 -2.25 0 0 0 Z " fill="#060F28" transform="translate(656,546)"/>
<path d="M0 0 C1.9451 2.91765 2.45276317 4.62537285 3 8 C1.35 8 -0.3 8 -2 8 C-1.34 5.36 -0.68 2.72 0 0 Z " fill="#EBEFF0" transform="translate(477,543)"/>
<path d="M0 0 C4.29 0 8.58 0 13 0 C13 0.99 13 1.98 13 3 C8.18061476 3.23509196 4.53701494 2.45184478 0 1 C0 0.67 0 0.34 0 0 Z " fill="#84BAD6" transform="translate(223,461)"/>
<path d="M0 0 C0.66 0.33 1.32 0.66 2 1 C2.33 2.65 2.66 4.3 3 6 C-3.93 5.505 -3.93 5.505 -11 5 C-11 4.67 -11 4.34 -11 4 C-5.555 3.505 -5.555 3.505 0 3 C0 2.01 0 1.02 0 0 Z " fill="#22639D" transform="translate(797,499)"/>
<path d="M0 0 C2.5654594 2.5654594 2.54046087 4.47686668 3 8 C2.01 7.01 1.02 6.02 0 5 C-1.485 7.475 -1.485 7.475 -3 10 C-3.33 9.34 -3.66 8.68 -4 8 C-3.22265625 6.0546875 -3.22265625 6.0546875 -2.0625 3.875 C-1.49208984 2.78832031 -1.49208984 2.78832031 -0.91015625 1.6796875 C-0.60980469 1.12539063 -0.30945313 0.57109375 0 0 Z " fill="#B0E6F4" transform="translate(305,386)"/>
<path d="M0 0 C2.64 0 5.28 0 8 0 C7.67 0.99 7.34 1.98 7 3 C5.35 3 3.7 3 2 3 C1.67 3.99 1.34 4.98 1 6 C0.67 4.02 0.34 2.04 0 0 Z " fill="#233E58" transform="translate(700,538)"/>
<path d="M0 0 C1.37432457 3.81756824 0.67975039 7.07255329 0 11 C-0.66 11 -1.32 11 -2 11 C-2.33 11.66 -2.66 12.32 -3 13 C-2.45144652 8.428721 -1.58255197 4.32564205 0 0 Z " fill="#1C5C9A" transform="translate(847,420)"/>
<path d="M0 0 C0.33 0.66 0.66 1.32 1 2 C-1.84936103 5.00765886 -4.23511958 7.27845212 -8 9 C-7.04270084 7.87411986 -6.08412105 6.7493285 -5.125 5.625 C-4.59132813 4.99851562 -4.05765625 4.37203125 -3.5078125 3.7265625 C-2.38567993 2.44163349 -1.20628025 1.20628025 0 0 Z " fill="#061831" transform="translate(381,558)"/>
<path d="M0 0 C1.32 0 2.64 0 4 0 C4 1.98 4 3.96 4 6 C3.01 6 2.02 6 1 6 C0.67 4.02 0.34 2.04 0 0 Z " fill="#122F4D" transform="translate(908,551)"/>
<path d="M0 0 C0.66 0.33 1.32 0.66 2 1 C1 4 1 4 -1 7 C-1.99 5.35 -2.98 3.7 -4 2 C-2.125 0.9375 -2.125 0.9375 0 0 Z " fill="#163554" transform="translate(631,548)"/>
<path d="M0 0 C0.66 0 1.32 0 2 0 C2.79953138 3.28696233 3.09658936 4.71023192 2 8 C1.34 7.67 0.68 7.34 0 7 C0 4.69 0 2.38 0 0 Z " fill="#122F4D" transform="translate(900,538)"/>
<path d="M0 0 C0.33 0.66 0.66 1.32 1 2 C0.01 3.485 0.01 3.485 -1 5 C-1.66 4.67 -2.32 4.34 -3 4 C-3.33 4.99 -3.66 5.98 -4 7 C-4 5.02 -4 3.04 -4 1 C-2.68 0.67 -1.36 0.34 0 0 Z " fill="#15324F" transform="translate(852,537)"/>
<path d="M0 0 C2.875 0.3125 2.875 0.3125 6 1 C6.66 1.99 7.32 2.98 8 4 C7.01 4.33 6.02 4.66 5 5 C2.61438008 3.52652887 1.26132231 2.52264461 0 0 Z " fill="#1A324C" transform="translate(750,538)"/>
<path d="M0 0 C0.33 0.66 0.66 1.32 1 2 C1.66 2 2.32 2 3 2 C4.125 7.625 4.125 7.625 3 11 C2.49384702 9.73160474 1.99530901 8.46016898 1.5 7.1875 C1.2215625 6.47980469 0.943125 5.77210938 0.65625 5.04296875 C0 3 0 3 0 0 Z " fill="#1D5E9C" transform="translate(902,452)"/>
<path d="M0 0 C-2.65228812 1.07525194 -5.28368454 2.09456151 -8 3 C-8.66 2.01 -9.32 1.02 -10 0 C-6.33694766 -0.74926071 -3.57644848 -1.2380014 0 0 Z " fill="#173351" transform="translate(376,649)"/>
<path d="M0 0 C0.66 0.99 1.32 1.98 2 3 C0 6 0 6 -2.125 6.6875 C-2.74375 6.790625 -3.3625 6.89375 -4 7 C-2.79618552 4.50638429 -1.54571278 2.31856917 0 0 Z " fill="#091B32" transform="translate(347,555)"/>
<path d="M0 0 C0.66 0 1.32 0 2 0 C2.33 2.31 2.66 4.62 3 7 C2.01 7.33 1.02 7.66 0 8 C0 5.36 0 2.72 0 0 Z " fill="#143350" transform="translate(578,538)"/>
<path d="M0 0 C1.32 0.33 2.64 0.66 4 1 C3.67 2.65 3.34 4.3 3 6 C2.67 4.68 2.34 3.36 2 2 C0.68 2.33 -0.64 2.66 -2 3 C-1.34 2.01 -0.68 1.02 0 0 Z " fill="#0D1B30" transform="translate(281,526)"/>
</svg>
